<svg width="34" height="34" viewBox="0 0 34 34" fill="none" xmlns="http://www.w3.org/2000/svg">
<path d="M11.3335 17C11.3329 16.669 11.4481 16.3482 11.6593 16.0933L18.7427 7.59332C18.9831 7.30401 19.3287 7.12208 19.7033 7.08754C20.0779 7.053 20.4509 7.16869 20.7402 7.40915C21.0295 7.64961 21.2114 7.99515 21.246 8.36976C21.2805 8.74436 21.1648 9.11734 20.9243 9.40665L14.5777 17L20.6977 24.5933C20.8154 24.7382 20.9032 24.905 20.9563 25.0839C21.0093 25.2629 21.0264 25.4506 21.0067 25.6362C20.9869 25.8219 20.9307 26.0018 20.8412 26.1656C20.7517 26.3294 20.6307 26.4739 20.4852 26.5908C20.3395 26.7206 20.1686 26.8188 19.9832 26.8794C19.7978 26.9401 19.6019 26.9617 19.4077 26.9431C19.2135 26.9245 19.0253 26.866 18.8548 26.7712C18.6843 26.6765 18.5352 26.5475 18.4168 26.3925L11.5743 17.8925C11.3965 17.6303 11.3117 17.316 11.3335 17Z" fill="white"/>
</svg>
