<svg width="34" height="34" viewBox="0 0 34 34" fill="none" xmlns="http://www.w3.org/2000/svg">
<path d="M22.6665 17C22.6671 17.331 22.5519 17.6518 22.3407 17.9067L15.2573 26.4067C15.0169 26.696 14.6713 26.8779 14.2967 26.9125C13.9221 26.947 13.5491 26.8313 13.2598 26.5908C12.9705 26.3504 12.7886 26.0048 12.754 25.6302C12.7195 25.2556 12.8352 24.8827 13.0757 24.5933L19.4223 17L13.3023 9.40668C13.1846 9.26177 13.0968 9.09504 13.0437 8.91606C12.9907 8.73708 12.9736 8.54938 12.9933 8.36376C13.0131 8.17813 13.0693 7.99824 13.1588 7.83442C13.2483 7.67061 13.3693 7.52609 13.5148 7.40918C13.6605 7.27945 13.8314 7.18119 14.0168 7.12056C14.2022 7.05994 14.3981 7.03826 14.5923 7.05688C14.7865 7.0755 14.9747 7.13402 15.1452 7.22877C15.3157 7.32352 15.4648 7.45246 15.5832 7.60752L22.4257 16.1075C22.6035 16.3697 22.6883 16.684 22.6665 17Z" fill="white"/>
</svg>
