<svg width="99" height="100" viewBox="0 0 99 100" fill="none" xmlns="http://www.w3.org/2000/svg">
<g filter="url(#filter0_d_1021_811)">
<circle cx="49.5" cy="45" r="24.5" fill="white"/>
</g>
<path fill-rule="evenodd" clip-rule="evenodd" d="M45.0527 33.572C46.3324 33.5131 46.7404 33.5 50 33.5C53.2596 33.5 53.6676 33.5142 54.9462 33.572C56.2247 33.6298 57.0975 33.8338 57.8611 34.1295C58.6607 34.4316 59.3862 34.904 59.9862 35.5149C60.5971 36.1138 61.0684 36.8382 61.3695 37.6389C61.6662 38.4025 61.8691 39.2753 61.928 40.5516C61.9869 41.8335 62 42.2415 62 45.5C62 48.7596 61.9858 49.1676 61.928 50.4473C61.8702 51.7236 61.6662 52.5964 61.3695 53.36C61.0684 54.1608 60.5963 54.8864 59.9862 55.4862C59.3862 56.0971 58.6607 56.5684 57.8611 56.8695C57.0975 57.1662 56.2247 57.3691 54.9484 57.428C53.6676 57.4869 53.2596 57.5 50 57.5C46.7404 57.5 46.3324 57.4858 45.0527 57.428C43.7764 57.3702 42.9036 57.1662 42.14 56.8695C41.3392 56.5683 40.6136 56.0963 40.0138 55.4862C39.4033 54.8869 38.9309 54.1617 38.6295 53.3611C38.3338 52.5975 38.1309 51.7247 38.072 50.4484C38.0131 49.1665 38 48.7585 38 45.5C38 42.2404 38.0142 41.8324 38.072 40.5538C38.1298 39.2753 38.3338 38.4025 38.6295 37.6389C38.9313 36.8383 39.4041 36.1131 40.0149 35.5138C40.6139 34.9035 41.3387 34.431 42.1389 34.1295C42.9025 33.8338 43.7753 33.6309 45.0516 33.572H45.0527ZM54.8491 35.732C53.5836 35.6742 53.204 35.6622 50 35.6622C46.796 35.6622 46.4164 35.6742 45.1509 35.732C43.9804 35.7855 43.3455 35.9807 42.9222 36.1455C42.3625 36.3636 41.9622 36.6222 41.5422 37.0422C41.144 37.4295 40.8377 37.901 40.6455 38.4222C40.4807 38.8455 40.2855 39.4804 40.232 40.6509C40.1742 41.9164 40.1622 42.296 40.1622 45.5C40.1622 48.704 40.1742 49.0836 40.232 50.3491C40.2855 51.5196 40.4807 52.1545 40.6455 52.5778C40.8375 53.0982 41.144 53.5705 41.5422 53.9578C41.9295 54.356 42.4018 54.6625 42.9222 54.8545C43.3455 55.0193 43.9804 55.2145 45.1509 55.268C46.4164 55.3258 46.7949 55.3378 50 55.3378C53.2051 55.3378 53.5836 55.3258 54.8491 55.268C56.0196 55.2145 56.6545 55.0193 57.0778 54.8545C57.6375 54.6364 58.0378 54.3778 58.4578 53.9578C58.856 53.5705 59.1625 53.0982 59.3545 52.5778C59.5193 52.1545 59.7145 51.5196 59.768 50.3491C59.8258 49.0836 59.8378 48.704 59.8378 45.5C59.8378 42.296 59.8258 41.9164 59.768 40.6509C59.7145 39.4804 59.5193 38.8455 59.3545 38.4222C59.1364 37.8625 58.8778 37.4622 58.4578 37.0422C58.0705 36.6441 57.5989 36.3377 57.0778 36.1455C56.6545 35.9807 56.0196 35.7855 54.8491 35.732ZM48.4673 49.1993C49.3233 49.5556 50.2764 49.6037 51.1639 49.3353C52.0514 49.067 52.8182 48.4988 53.3334 47.7279C53.8485 46.957 54.0801 46.0311 53.9884 45.1085C53.8968 44.1858 53.4876 43.3236 52.8309 42.6691C52.4123 42.2507 51.906 41.9303 51.3487 41.7311C50.7914 41.5318 50.1968 41.4586 49.6078 41.5167C49.0188 41.5748 48.45 41.7627 47.9423 42.0671C47.4347 42.3714 47.0008 42.7844 46.672 43.2766C46.3431 43.7687 46.1275 44.3276 46.0406 44.913C45.9536 45.4985 45.9976 46.096 46.1693 46.6624C46.341 47.2288 46.6362 47.7501 47.0335 48.1888C47.4309 48.6275 47.9205 48.9726 48.4673 49.1993ZM45.6385 41.1385C46.2113 40.5658 46.8913 40.1115 47.6396 39.8015C48.3879 39.4915 49.19 39.332 50 39.332C50.81 39.332 51.6121 39.4915 52.3604 39.8015C53.1087 40.1115 53.7887 40.5658 54.3615 41.1385C54.9342 41.7113 55.3885 42.3913 55.6985 43.1396C56.0085 43.8879 56.168 44.69 56.168 45.5C56.168 46.31 56.0085 47.1121 55.6985 47.8604C55.3885 48.6087 54.9342 49.2887 54.3615 49.8615C53.2047 51.0182 51.6359 51.668 50 51.668C48.3641 51.668 46.7953 51.0182 45.6385 49.8615C44.4818 48.7047 43.832 47.1359 43.832 45.5C43.832 43.8641 44.4818 42.2953 45.6385 41.1385ZM57.536 40.2505C57.6779 40.1167 57.7916 39.9557 57.8701 39.7771C57.9487 39.5985 57.9907 39.4059 57.9935 39.2108C57.9964 39.0157 57.9601 38.8221 57.8867 38.6412C57.8134 38.4604 57.7045 38.2962 57.5665 38.1582C57.4285 38.0203 57.2643 37.9114 57.0835 37.838C56.9027 37.7647 56.709 37.7283 56.5139 37.7312C56.3188 37.734 56.1263 37.776 55.9477 37.8546C55.7691 37.9332 55.6081 38.0468 55.4742 38.1887C55.2138 38.4648 55.0712 38.8314 55.0768 39.2108C55.0823 39.5903 55.2355 39.9526 55.5038 40.2209C55.7721 40.4892 56.1345 40.6424 56.5139 40.648C56.8933 40.6535 57.26 40.5109 57.536 40.2505Z" fill="#FCC415"/>
<defs>
<filter id="filter0_d_1021_811" x="0" y="0.5" width="99" height="99" filterUnits="userSpaceOnUse" color-interpolation-filters="sRGB">
<feFlood flood-opacity="0" result="BackgroundImageFix"/>
<feColorMatrix in="SourceAlpha" type="matrix" values="0 0 0 0 0 0 0 0 0 0 0 0 0 0 0 0 0 0 127 0" result="hardAlpha"/>
<feOffset dy="5"/>
<feGaussianBlur stdDeviation="12.5"/>
<feColorMatrix type="matrix" values="0 0 0 0 0.266667 0 0 0 0 0.266667 0 0 0 0 0.266667 0 0 0 0.25 0"/>
<feBlend mode="normal" in2="BackgroundImageFix" result="effect1_dropShadow_1021_811"/>
<feBlend mode="normal" in="SourceGraphic" in2="effect1_dropShadow_1021_811" result="shape"/>
</filter>
</defs>
</svg>
