<svg width="100" height="100" viewBox="0 0 100 100" fill="none" xmlns="http://www.w3.org/2000/svg">
<g filter="url(#filter0_d_1021_810)">
<ellipse cx="50" cy="45" rx="25" ry="24.5" fill="white"/>
</g>
<path d="M65 36.3468C63.8968 36.8279 62.7116 37.153 61.4657 37.2999C62.7513 36.5429 63.713 35.3515 64.1716 33.9479C62.9638 34.6539 61.6419 35.1509 60.2634 35.4172C59.3364 34.4432 58.1085 33.7975 56.7704 33.5806C55.4324 33.3637 54.059 33.5875 52.8634 34.2174C51.6679 34.8473 50.7171 35.848 50.1588 37.0642C49.6004 38.2803 49.4656 39.6439 49.7754 40.9431C47.328 40.8222 44.9339 40.1962 42.7483 39.1058C40.5627 38.0153 38.6345 36.4849 37.0889 34.6137C36.5604 35.5108 36.2565 36.551 36.2565 37.6588C36.2559 38.656 36.5055 39.638 36.983 40.5176C37.4606 41.3972 38.1514 42.1471 38.9941 42.701C38.0167 42.6704 37.061 42.4105 36.2063 41.943V42.021C36.2062 43.4197 36.6978 44.7753 37.5978 45.8579C38.4978 46.9405 39.7506 47.6833 41.1438 47.9603C40.2371 48.2018 39.2865 48.2374 38.3639 48.0644C38.7569 49.2678 39.5226 50.3203 40.5536 51.0742C41.5847 51.8282 42.8295 52.2461 44.1139 52.2692C41.9336 53.9535 39.241 54.8672 36.4692 54.8632C35.9782 54.8633 35.4876 54.8351 35 54.7786C37.8135 56.5589 41.0887 57.5037 44.4336 57.5C55.7566 57.5 61.9466 48.2711 61.9466 40.267C61.9466 40.0069 61.94 39.7443 61.9281 39.4843C63.1322 38.6274 64.1715 37.5663 64.9974 36.3507L65 36.3468Z" fill="#FCC415"/>
<defs>
<filter id="filter0_d_1021_810" x="0" y="0.5" width="100" height="99" filterUnits="userSpaceOnUse" color-interpolation-filters="sRGB">
<feFlood flood-opacity="0" result="BackgroundImageFix"/>
<feColorMatrix in="SourceAlpha" type="matrix" values="0 0 0 0 0 0 0 0 0 0 0 0 0 0 0 0 0 0 127 0" result="hardAlpha"/>
<feOffset dy="5"/>
<feGaussianBlur stdDeviation="12.5"/>
<feColorMatrix type="matrix" values="0 0 0 0 0.266667 0 0 0 0 0.266667 0 0 0 0 0.266667 0 0 0 0.25 0"/>
<feBlend mode="normal" in2="BackgroundImageFix" result="effect1_dropShadow_1021_810"/>
<feBlend mode="normal" in="SourceGraphic" in2="effect1_dropShadow_1021_810" result="shape"/>
</filter>
</defs>
</svg>
