<svg width="28" height="28" viewBox="0 0 28 28" fill="none" xmlns="http://www.w3.org/2000/svg">
<path d="M23.5202 7.98C20.1602 2.8 13.3002 1.26 7.98018 4.48C2.80018 7.7 1.12018 14.7 4.48018 19.88L4.76018 20.3L3.64018 24.5L7.84018 23.38L8.26018 23.66C10.0802 24.64 12.0402 25.2 14.0002 25.2C16.1002 25.2 18.2002 24.64 20.0202 23.52C25.2002 20.16 26.7402 13.3 23.5202 7.98ZM20.5802 18.76C20.0202 19.6 19.3202 20.16 18.3402 20.3C17.7802 20.3 17.0802 20.58 14.2802 19.46C11.9002 18.34 9.94018 16.52 8.54018 14.42C7.70018 13.44 7.28018 12.18 7.14018 10.92C7.14018 9.8 7.56018 8.82 8.26018 8.12C8.54018 7.84 8.82018 7.7 9.10018 7.7H9.80018C10.0802 7.7 10.3602 7.7 10.5002 8.26C10.7802 8.96 11.4802 10.64 11.4802 10.78C11.6202 10.92 11.6202 11.2 11.4802 11.34C11.6202 11.62 11.4802 11.9 11.3402 12.04C11.2002 12.18 11.0602 12.46 10.9202 12.6C10.6402 12.74 10.5002 13.02 10.6402 13.3C11.2002 14.14 11.9002 14.98 12.6002 15.68C13.4402 16.38 14.2802 16.94 15.2602 17.36C15.5402 17.5 15.8202 17.5 15.9602 17.22C16.1002 16.94 16.8002 16.24 17.0802 15.96C17.3602 15.68 17.5002 15.68 17.7802 15.82L20.0202 16.94C20.3002 17.08 20.5802 17.22 20.7202 17.36C20.8602 17.78 20.8602 18.34 20.5802 18.76Z" fill="#F8F9FA"/>
</svg>
