<svg width="122" height="122" viewBox="0 0 122 122" fill="none" xmlns="http://www.w3.org/2000/svg">
<g filter="url(#filter0_d_1021_812)">
<circle cx="61" cy="53" r="43" fill="url(#paint0_linear_1021_812)"/>
</g>
<g filter="url(#filter1_d_1021_812)">
<path d="M79.3596 41.3901C72.8796 31.4001 59.6496 28.4301 49.3896 34.6401C39.3996 40.8501 36.1596 54.3501 42.6396 64.3401L43.1796 65.1501L41.0196 73.2501L49.1196 71.0901L49.9296 71.6301C53.4396 73.5201 57.2197 74.6001 60.9996 74.6001C65.0497 74.6001 69.0997 73.5201 72.6096 71.3601C82.5997 64.8801 85.5696 51.6501 79.3596 41.3901ZM73.6896 62.1801C72.6096 63.8001 71.2597 64.8801 69.3697 65.1501C68.2896 65.1501 66.9396 65.6901 61.5396 63.5301C56.9496 61.3701 53.1696 57.8601 50.4696 53.8101C48.8496 51.9201 48.0396 49.4901 47.7696 47.0601C47.7696 44.9001 48.5796 43.0101 49.9296 41.6601C50.4697 41.1201 51.0096 40.8501 51.5496 40.8501H52.8996C53.4396 40.8501 53.9796 40.8501 54.2497 41.9301C54.7896 43.2801 56.1396 46.5201 56.1396 46.7901C56.4096 47.0601 56.4096 47.6001 56.1396 47.8701C56.4096 48.4101 56.1397 48.9501 55.8696 49.2201C55.5997 49.4901 55.3297 50.0301 55.0597 50.3001C54.5197 50.5701 54.2496 51.1101 54.5196 51.6501C55.5996 53.2701 56.9496 54.8901 58.2997 56.2401C59.9196 57.5901 61.5396 58.6701 63.4296 59.4801C63.9696 59.7501 64.5096 59.7501 64.7796 59.2101C65.0496 58.6701 66.3996 57.3201 66.9396 56.7801C67.4796 56.2401 67.7496 56.2401 68.2896 56.5101L72.6096 58.6701C73.1497 58.9401 73.6897 59.2101 73.9597 59.4801C74.2296 60.2901 74.2296 61.3701 73.6896 62.1801Z" fill="white"/>
</g>
<defs>
<filter id="filter0_d_1021_812" x="0" y="0" width="122" height="122" filterUnits="userSpaceOnUse" color-interpolation-filters="sRGB">
<feFlood flood-opacity="0" result="BackgroundImageFix"/>
<feColorMatrix in="SourceAlpha" type="matrix" values="0 0 0 0 0 0 0 0 0 0 0 0 0 0 0 0 0 0 127 0" result="hardAlpha"/>
<feOffset dy="8"/>
<feGaussianBlur stdDeviation="9"/>
<feComposite in2="hardAlpha" operator="out"/>
<feColorMatrix type="matrix" values="0 0 0 0 0.145098 0 0 0 0 0.827451 0 0 0 0 0.4 0 0 0 0.25 0"/>
<feBlend mode="normal" in2="BackgroundImageFix" result="effect1_dropShadow_1021_812"/>
<feBlend mode="normal" in="SourceGraphic" in2="effect1_dropShadow_1021_812" result="shape"/>
</filter>
<filter id="filter1_d_1021_812" x="4" y="4" width="114" height="114" filterUnits="userSpaceOnUse" color-interpolation-filters="sRGB">
<feFlood flood-opacity="0" result="BackgroundImageFix"/>
<feColorMatrix in="SourceAlpha" type="matrix" values="0 0 0 0 0 0 0 0 0 0 0 0 0 0 0 0 0 0 127 0" result="hardAlpha"/>
<feOffset dy="8"/>
<feGaussianBlur stdDeviation="15"/>
<feColorMatrix type="matrix" values="0 0 0 0 0 0 0 0 0 0 0 0 0 0 0 0 0 0 0.1 0"/>
<feBlend mode="normal" in2="BackgroundImageFix" result="effect1_dropShadow_1021_812"/>
<feBlend mode="normal" in="SourceGraphic" in2="effect1_dropShadow_1021_812" result="shape"/>
</filter>
<linearGradient id="paint0_linear_1021_812" x1="61" y1="10" x2="61" y2="96" gradientUnits="userSpaceOnUse">
<stop stop-color="#31F47A"/>
<stop offset="1" stop-color="#25D366"/>
</linearGradient>
</defs>
</svg>
