<svg width="82" height="133" viewBox="0 0 82 133" fill="none" xmlns="http://www.w3.org/2000/svg">
<path d="M5.715 3.48099C4.62399 3.84466 3.63688 4.94607 3.40828 6.05787C2.96149 8.19834 5.10196 10.3388 7.24242 9.89201C8.85297 9.55951 10.0998 7.91779 9.94399 6.36959C9.82969 5.27857 9.00883 4.15638 7.96977 3.64724C7.33594 3.34591 6.35922 3.27318 5.715 3.48099Z" fill="#FCC415"/>
<path d="M19.0149 3.48086C17.4459 4.00039 16.3861 5.72524 16.7082 7.24227C16.9679 8.47875 18.1213 9.63211 19.3474 9.89188C21.3632 10.3179 23.4517 8.41641 23.2439 6.36945C23.1296 5.27844 22.3087 4.15625 21.2696 3.64711C20.6358 3.34578 19.6591 3.27305 19.0149 3.48086Z" fill="#FCC415"/>
<path d="M32.3151 3.48099C31.2241 3.84466 30.237 4.94607 30.0084 6.05787C29.5616 8.19834 31.7021 10.3388 33.8425 9.89201C35.4531 9.55951 36.6999 7.91779 36.5441 6.36959C36.4298 5.27857 35.6089 4.15638 34.5699 3.64724C33.936 3.34591 32.9593 3.27318 32.3151 3.48099Z" fill="#FCC415"/>
<path d="M45.6149 3.48099C44.5239 3.84466 43.5368 4.94607 43.3082 6.05787C42.8614 8.19834 45.0019 10.3388 47.1423 9.89201C48.7529 9.55951 49.9997 7.91779 49.8439 6.36959C49.7296 5.27857 48.9087 4.15638 47.8697 3.64724C47.2358 3.34591 46.2591 3.27318 45.6149 3.48099Z" fill="#FCC415"/>
<path d="M58.9152 3.48099C57.8242 3.84466 56.8371 4.94607 56.6085 6.05787C56.1617 8.19834 58.3022 10.3388 60.4426 9.89201C62.0532 9.55951 63.3001 7.91779 63.1442 6.36959C63.0299 5.27857 62.209 4.15638 61.17 3.64724C60.5361 3.34591 59.5594 3.27318 58.9152 3.48099Z" fill="#FCC415"/>
<path d="M72.215 3.48099C71.124 3.84466 70.1369 4.94607 69.9083 6.05787C69.4615 8.19834 71.602 10.3388 73.7424 9.89201C75.353 9.55951 76.5998 7.91779 76.444 6.36959C76.3297 5.27857 75.5088 4.15638 74.4698 3.64724C73.8359 3.34591 72.8592 3.27318 72.215 3.48099Z" fill="#FCC415"/>
<path d="M5.715 16.781C4.62399 17.1447 3.63688 18.2461 3.40828 19.3579C2.96149 21.4984 5.10196 23.6389 7.24242 23.1921C8.85297 22.8596 10.0998 21.2178 9.94399 19.6696C9.82969 18.5786 9.00883 17.4564 7.96977 16.9473C7.33594 16.646 6.35922 16.5732 5.715 16.781Z" fill="#FCC415"/>
<path d="M19.0149 16.7809C17.4459 17.3004 16.3861 19.0253 16.7082 20.5423C16.9679 21.7788 18.1213 22.9322 19.3474 23.1919C21.3632 23.6179 23.4517 21.7165 23.2439 19.6695C23.1296 18.5785 22.3087 17.4563 21.2696 16.9472C20.6358 16.6458 19.6591 16.5731 19.0149 16.7809Z" fill="#FCC415"/>
<path d="M32.3151 16.781C31.2241 17.1447 30.237 18.2461 30.0084 19.3579C29.5616 21.4984 31.7021 23.6389 33.8425 23.1921C35.4531 22.8596 36.6999 21.2178 36.5441 19.6696C36.4298 18.5786 35.6089 17.4564 34.5699 16.9473C33.936 16.646 32.9593 16.5732 32.3151 16.781Z" fill="#FCC415"/>
<path d="M45.6149 16.781C44.5239 17.1447 43.5368 18.2461 43.3082 19.3579C42.8614 21.4984 45.0019 23.6389 47.1423 23.1921C48.7529 22.8596 49.9997 21.2178 49.8439 19.6696C49.7296 18.5786 48.9087 17.4564 47.8697 16.9473C47.2358 16.646 46.2591 16.5732 45.6149 16.781Z" fill="#FCC415"/>
<path d="M58.9152 16.781C57.8242 17.1447 56.8371 18.2461 56.6085 19.3579C56.1617 21.4984 58.3022 23.6389 60.4426 23.1921C62.0532 22.8596 63.3001 21.2178 63.1442 19.6696C63.0299 18.5786 62.209 17.4564 61.17 16.9473C60.5361 16.646 59.5594 16.5732 58.9152 16.781Z" fill="#FCC415"/>
<path d="M72.215 16.781C71.124 17.1447 70.1369 18.2461 69.9083 19.3579C69.4615 21.4984 71.602 23.6389 73.7424 23.1921C75.353 22.8596 76.5998 21.2178 76.444 19.6696C76.3297 18.5786 75.5088 17.4564 74.4698 16.9473C73.8359 16.646 72.8592 16.5732 72.215 16.781Z" fill="#FCC415"/>
<path d="M5.715 30.0808C4.62399 30.4445 3.63688 31.5459 3.40828 32.6577C2.96149 34.7982 5.10196 36.9387 7.24242 36.4919C8.85297 36.1594 10.0998 34.5176 9.94399 32.9694C9.82969 31.8784 9.00883 30.7562 7.96977 30.2471C7.33594 29.9458 6.35922 29.873 5.715 30.0808Z" fill="#FCC415"/>
<path d="M19.0148 30.0808C17.9238 30.4445 16.9367 31.5459 16.7081 32.6577C16.2613 34.7982 18.4018 36.9387 20.5422 36.4919C22.1528 36.1594 23.3997 34.5176 23.2438 32.9694C23.1295 31.8784 22.3086 30.7562 21.2696 30.2471C20.6357 29.9458 19.659 29.873 19.0148 30.0808Z" fill="#FCC415"/>
<path d="M32.3151 30.0808C31.2241 30.4445 30.237 31.5459 30.0084 32.6577C29.5616 34.7982 31.7021 36.9387 33.8425 36.4919C35.4531 36.1594 36.6999 34.5176 36.5441 32.9694C36.4298 31.8784 35.6089 30.7562 34.5699 30.2471C33.936 29.9458 32.9593 29.873 32.3151 30.0808Z" fill="#FCC415"/>
<path d="M45.6149 30.0808C44.5239 30.4445 43.5368 31.5459 43.3082 32.6577C42.8614 34.7982 45.0019 36.9387 47.1423 36.4919C48.7529 36.1594 49.9997 34.5176 49.8439 32.9694C49.7296 31.8784 48.9087 30.7562 47.8697 30.2471C47.2358 29.9458 46.2591 29.873 45.6149 30.0808Z" fill="#FCC415"/>
<path d="M58.9152 30.0808C57.8242 30.4445 56.8371 31.5459 56.6085 32.6577C56.1617 34.7982 58.3022 36.9387 60.4426 36.4919C62.0532 36.1594 63.3001 34.5176 63.1442 32.9694C63.0299 31.8784 62.209 30.7562 61.17 30.2471C60.5361 29.9458 59.5594 29.873 58.9152 30.0808Z" fill="#FCC415"/>
<path d="M72.215 30.0808C71.124 30.4445 70.1369 31.5459 69.9083 32.6577C69.4615 34.7982 71.602 36.9387 73.7424 36.4919C75.353 36.1594 76.5998 34.5176 76.444 32.9694C76.3297 31.8784 75.5088 30.7562 74.4698 30.2471C73.8359 29.9458 72.8592 29.873 72.215 30.0808Z" fill="#FCC415"/>
<path d="M5.715 43.3809C4.62399 43.7446 3.63688 44.846 3.40828 45.9578C2.96149 48.0982 5.10196 50.2387 7.24242 49.7919C8.85297 49.4594 10.0998 47.8177 9.94399 46.2695C9.82969 45.1785 9.00883 44.0563 7.96977 43.5471C7.33594 43.2458 6.35922 43.1731 5.715 43.3809Z" fill="#FCC415"/>
<path d="M19.0148 43.3809C17.9238 43.7446 16.9367 44.846 16.7081 45.9578C16.2613 48.0982 18.4018 50.2387 20.5422 49.7919C22.1528 49.4594 23.3997 47.8177 23.2438 46.2695C23.1295 45.1785 22.3086 44.0563 21.2696 43.5471C20.6357 43.2458 19.659 43.1731 19.0148 43.3809Z" fill="#FCC415"/>
<path d="M32.3151 43.3809C31.2241 43.7446 30.237 44.846 30.0084 45.9578C29.5616 48.0982 31.7021 50.2387 33.8425 49.7919C35.4531 49.4594 36.6999 47.8177 36.5441 46.2695C36.4298 45.1785 35.6089 44.0563 34.5699 43.5471C33.936 43.2458 32.9593 43.1731 32.3151 43.3809Z" fill="#FCC415"/>
<path d="M45.6149 43.3809C44.5239 43.7446 43.5368 44.846 43.3082 45.9578C42.8614 48.0982 45.0019 50.2387 47.1423 49.7919C48.7529 49.4594 49.9997 47.8177 49.8439 46.2695C49.7296 45.1785 48.9087 44.0563 47.8697 43.5471C47.2358 43.2458 46.2591 43.1731 45.6149 43.3809Z" fill="#FCC415"/>
<path d="M58.9152 43.3809C57.8242 43.7446 56.8371 44.846 56.6085 45.9578C56.1617 48.0982 58.3022 50.2387 60.4426 49.7919C62.0532 49.4594 63.3001 47.8177 63.1442 46.2695C63.0299 45.1785 62.209 44.0563 61.17 43.5471C60.5361 43.2458 59.5594 43.1731 58.9152 43.3809Z" fill="#FCC415"/>
<path d="M72.215 43.3809C71.124 43.7446 70.1369 44.846 69.9083 45.9578C69.4615 48.0982 71.602 50.2387 73.7424 49.7919C75.353 49.4594 76.5998 47.8177 76.444 46.2695C76.3297 45.1785 75.5088 44.0563 74.4698 43.5471C73.8359 43.2458 72.8592 43.1731 72.215 43.3809Z" fill="#FCC415"/>
<path d="M5.715 56.6809C4.62399 57.0446 3.63688 58.146 3.40828 59.2578C2.96149 61.3983 5.10196 63.5388 7.24242 63.092C8.85297 62.7595 10.0998 61.1177 9.94399 59.5695C9.82969 58.4785 9.00883 57.3563 7.96977 56.8472C7.33594 56.5459 6.35922 56.4731 5.715 56.6809Z" fill="#FCC415"/>
<path d="M19.0148 56.6809C17.9238 57.0446 16.9367 58.146 16.7081 59.2578C16.2613 61.3983 18.4018 63.5388 20.5422 63.092C22.1528 62.7595 23.3997 61.1177 23.2438 59.5695C23.1295 58.4785 22.3086 57.3563 21.2696 56.8472C20.6357 56.5459 19.659 56.4731 19.0148 56.6809Z" fill="#FCC415"/>
<path d="M32.3151 56.6809C31.2241 57.0446 30.237 58.146 30.0084 59.2578C29.5616 61.3983 31.7021 63.5388 33.8425 63.092C35.4531 62.7595 36.6999 61.1177 36.5441 59.5695C36.4298 58.4785 35.6089 57.3563 34.5699 56.8472C33.936 56.5459 32.9593 56.4731 32.3151 56.6809Z" fill="#FCC415"/>
<path d="M45.6149 56.6809C44.5239 57.0446 43.5368 58.146 43.3082 59.2578C42.8614 61.3983 45.0019 63.5388 47.1423 63.092C48.7529 62.7595 49.9997 61.1177 49.8439 59.5695C49.7296 58.4785 48.9087 57.3563 47.8697 56.8472C47.2358 56.5459 46.2591 56.4731 45.6149 56.6809Z" fill="#FCC415"/>
<path d="M58.9152 56.6809C57.8242 57.0446 56.8371 58.146 56.6085 59.2578C56.1617 61.3983 58.3022 63.5388 60.4426 63.092C62.0532 62.7595 63.3001 61.1177 63.1442 59.5695C63.0299 58.4785 62.209 57.3563 61.17 56.8472C60.5361 56.5459 59.5594 56.4731 58.9152 56.6809Z" fill="#FCC415"/>
<path d="M72.215 56.6809C71.124 57.0446 70.1369 58.146 69.9083 59.2578C69.4615 61.3983 71.602 63.5388 73.7424 63.092C75.353 62.7595 76.5998 61.1177 76.444 59.5695C76.3297 58.4785 75.5088 57.3563 74.4698 56.8472C73.8359 56.5459 72.8592 56.4731 72.215 56.6809Z" fill="#FCC415"/>
<path d="M5.715 69.981C4.62399 70.3447 3.63688 71.4461 3.40828 72.5579C2.96149 74.6983 5.10196 76.8388 7.24242 76.392C8.85297 76.0595 10.0998 74.4178 9.94399 72.8696C9.82969 71.7786 9.00883 70.6564 7.96977 70.1472C7.33594 69.8459 6.35922 69.7732 5.715 69.981Z" fill="#FCC415"/>
<path d="M19.0148 69.981C17.9238 70.3447 16.9367 71.4461 16.7081 72.5579C16.2613 74.6983 18.4018 76.8388 20.5422 76.392C22.1528 76.0595 23.3997 74.4178 23.2438 72.8696C23.1295 71.7786 22.3086 70.6564 21.2696 70.1472C20.6357 69.8459 19.659 69.7732 19.0148 69.981Z" fill="#FCC415"/>
<path d="M32.3151 69.981C31.2241 70.3447 30.237 71.4461 30.0084 72.5579C29.5616 74.6983 31.7021 76.8388 33.8425 76.392C35.4531 76.0595 36.6999 74.4178 36.5441 72.8696C36.4298 71.7786 35.6089 70.6564 34.5699 70.1472C33.936 69.8459 32.9593 69.7732 32.3151 69.981Z" fill="#FCC415"/>
<path d="M45.6149 69.981C44.5239 70.3447 43.5368 71.4461 43.3082 72.5579C42.8614 74.6983 45.0019 76.8388 47.1423 76.392C48.7529 76.0595 49.9997 74.4178 49.8439 72.8696C49.7296 71.7786 48.9087 70.6564 47.8697 70.1472C47.2358 69.8459 46.2591 69.7732 45.6149 69.981Z" fill="#FCC415"/>
<path d="M58.9152 69.981C57.8242 70.3447 56.8371 71.4461 56.6085 72.5579C56.1617 74.6983 58.3022 76.8388 60.4426 76.392C62.0532 76.0595 63.3001 74.4178 63.1442 72.8696C63.0299 71.7786 62.209 70.6564 61.17 70.1472C60.5361 69.8459 59.5594 69.7732 58.9152 69.981Z" fill="#FCC415"/>
<path d="M72.215 69.981C71.124 70.3447 70.1369 71.4461 69.9083 72.5579C69.4615 74.6983 71.602 76.8388 73.7424 76.392C75.353 76.0595 76.5998 74.4178 76.444 72.8696C76.3297 71.7786 75.5088 70.6564 74.4698 70.1472C73.8359 69.8459 72.8592 69.7732 72.215 69.981Z" fill="#FCC415"/>
<path d="M5.715 83.2811C4.62399 83.6447 3.63688 84.7461 3.40828 85.8579C2.96149 87.9984 5.10196 90.1389 7.24242 89.6921C8.85297 89.3596 10.0998 87.7178 9.94399 86.1696C9.82969 85.0786 9.00883 83.9564 7.96977 83.4473C7.33594 83.146 6.35922 83.0732 5.715 83.2811Z" fill="#FCC415"/>
<path d="M19.0148 83.2811C17.9238 83.6447 16.9367 84.7461 16.7081 85.8579C16.2613 87.9984 18.4018 90.1389 20.5422 89.6921C22.1528 89.3596 23.3997 87.7178 23.2438 86.1696C23.1295 85.0786 22.3086 83.9564 21.2696 83.4473C20.6357 83.146 19.659 83.0732 19.0148 83.2811Z" fill="#FCC415"/>
<path d="M32.315 83.281C31.224 83.6447 30.2369 84.7461 30.0083 85.8579C29.7485 87.0736 30.3408 88.3932 31.4837 89.1725C32.5955 89.9414 33.8632 89.9518 34.9854 89.2037C36.8245 87.9776 37.0739 85.6916 35.5361 84.1642C34.6529 83.2706 33.3852 82.9277 32.315 83.281Z" fill="#FCC415"/>
<path d="M45.6148 83.281C44.5238 83.6447 43.5367 84.7461 43.3081 85.8579C43.0483 87.0736 43.6406 88.3932 44.7835 89.1725C45.8953 89.9414 47.163 89.9518 48.2852 89.2037C50.1243 87.9776 50.3737 85.6916 48.8359 84.1642C47.9527 83.2706 46.685 82.9277 45.6148 83.281Z" fill="#FCC415"/>
<path d="M58.9148 83.2809C57.3458 83.8004 56.286 85.5253 56.6081 87.0423C56.8678 88.2788 58.0212 89.4322 59.2577 89.6919C61.2631 90.1179 63.3516 88.2165 63.1437 86.1695C63.0295 85.0785 62.2086 83.9563 61.1695 83.4472C60.5357 83.1458 59.559 83.0731 58.9148 83.2809Z" fill="#FCC415"/>
<path d="M72.2151 83.2809C70.6461 83.8004 69.5862 85.5253 69.9084 87.0423C70.1681 88.2788 71.3215 89.4322 72.558 89.6919C74.5634 90.1179 76.6519 88.2165 76.4441 86.1695C76.3298 85.0785 75.5089 83.9563 74.4698 83.4472C73.836 83.1458 72.8593 83.0731 72.2151 83.2809Z" fill="#FCC415"/>
<path d="M5.715 96.5808C4.62399 96.9445 3.63688 98.0459 3.40828 99.1577C2.96149 101.298 5.10196 103.439 7.24242 102.992C8.85297 102.659 10.0998 101.018 9.94399 99.4694C9.82969 98.3784 9.00883 97.2562 7.96977 96.7471C7.33594 96.4458 6.35922 96.373 5.715 96.5808Z" fill="#FCC415"/>
<path d="M19.0148 96.5808C17.9238 96.9445 16.9367 98.0459 16.7081 99.1577C16.2613 101.298 18.4018 103.439 20.5422 102.992C22.1528 102.659 23.3997 101.018 23.2438 99.4694C23.1295 98.3784 22.3086 97.2562 21.2696 96.7471C20.6357 96.4458 19.659 96.373 19.0148 96.5808Z" fill="#FCC415"/>
<path d="M32.315 96.5811C31.224 96.9447 30.2369 98.0461 30.0083 99.1579C29.7485 100.374 30.3408 101.693 31.4837 102.473C32.5955 103.241 33.8632 103.252 34.9854 102.504C36.8245 101.278 37.0739 98.9917 35.5361 97.4643C34.6529 96.5707 33.3852 96.2278 32.315 96.5811Z" fill="#FCC415"/>
<path d="M45.6153 96.5811C44.5243 96.9447 43.5372 98.0461 43.3086 99.1579C43.0488 100.374 43.6411 101.693 44.784 102.473C45.8958 103.241 47.1635 103.252 48.2857 102.504C50.1248 101.278 50.3742 98.9917 48.8364 97.4643C47.9532 96.5707 46.6855 96.2278 45.6153 96.5811Z" fill="#FCC415"/>
<path d="M58.9148 96.581C57.3458 97.1005 56.286 98.8253 56.6081 100.342C56.8678 101.579 58.0212 102.732 59.2577 102.992C61.2631 103.418 63.3516 101.517 63.1437 99.4696C63.0295 98.3785 62.2086 97.2564 61.1695 96.7472C60.5357 96.4459 59.559 96.3731 58.9148 96.581Z" fill="#FCC415"/>
<path d="M72.2151 96.581C70.6461 97.1005 69.5862 98.8253 69.9084 100.342C70.1681 101.579 71.3215 102.732 72.558 102.992C74.5634 103.418 76.6519 101.517 76.4441 99.4696C76.3298 98.3785 75.5089 97.2564 74.4698 96.7472C73.836 96.4459 72.8593 96.3731 72.2151 96.581Z" fill="#FCC415"/>
<path d="M5.715 109.881C4.62399 110.245 3.63688 111.346 3.40828 112.458C2.96149 114.598 5.10196 116.739 7.24242 116.292C8.85297 115.959 10.0998 114.318 9.94399 112.769C9.82969 111.678 9.00883 110.556 7.96977 110.047C7.33594 109.746 6.35922 109.673 5.715 109.881Z" fill="#FCC415"/>
<path d="M19.0148 109.881C17.9238 110.245 16.9367 111.346 16.7081 112.458C16.2613 114.598 18.4018 116.739 20.5422 116.292C22.1528 115.959 23.3997 114.318 23.2438 112.769C23.1295 111.678 22.3086 110.556 21.2696 110.047C20.6357 109.746 19.659 109.673 19.0148 109.881Z" fill="#FCC415"/>
<path d="M32.315 109.881C31.224 110.245 30.2369 111.346 30.0083 112.458C29.7485 113.673 30.3408 114.993 31.4837 115.772C32.5955 116.541 33.8632 116.552 34.9854 115.804C36.8245 114.577 37.0739 112.291 35.5361 110.764C34.6529 109.87 33.3852 109.528 32.315 109.881Z" fill="#FCC415"/>
<path d="M45.6148 109.881C44.5238 110.245 43.5367 111.346 43.3081 112.458C43.0483 113.673 43.6406 114.993 44.7835 115.772C45.8953 116.541 47.163 116.552 48.2852 115.804C50.1243 114.577 50.3737 112.291 48.8359 110.764C47.9527 109.87 46.685 109.528 45.6148 109.881Z" fill="#FCC415"/>
<path d="M58.9152 109.881C57.8242 110.245 56.8371 111.346 56.6085 112.458C56.1617 114.598 58.3022 116.739 60.4426 116.292C62.0532 115.959 63.3001 114.318 63.1442 112.769C63.0299 111.678 62.209 110.556 61.17 110.047C60.5361 109.746 59.5594 109.673 58.9152 109.881Z" fill="#FCC415"/>
<path d="M72.215 109.881C71.124 110.245 70.1369 111.346 69.9083 112.458C69.4615 114.598 71.602 116.739 73.7424 116.292C75.353 115.959 76.5998 114.318 76.444 112.769C76.3297 111.678 75.5088 110.556 74.4698 110.047C73.8359 109.746 72.8592 109.673 72.215 109.881Z" fill="#FCC415"/>
<path d="M5.715 123.181C4.62399 123.545 3.63688 124.646 3.40828 125.758C2.96149 127.898 5.10196 130.039 7.24242 129.592C8.85297 129.259 10.0998 127.618 9.94399 126.07C9.82969 124.979 9.00883 123.856 7.96977 123.347C7.33594 123.046 6.35922 122.973 5.715 123.181Z" fill="#FCC415"/>
<path d="M19.0148 123.181C17.9238 123.545 16.9367 124.646 16.7081 125.758C16.2613 127.898 18.4018 130.039 20.5422 129.592C22.1528 129.259 23.3997 127.618 23.2438 126.07C23.1295 124.979 22.3086 123.856 21.2696 123.347C20.6357 123.046 19.659 122.973 19.0148 123.181Z" fill="#FCC415"/>
<path d="M32.3151 123.181C31.2241 123.545 30.237 124.646 30.0084 125.758C29.5616 127.898 31.7021 130.039 33.8425 129.592C35.4531 129.259 36.6999 127.618 36.5441 126.07C36.4298 124.979 35.6089 123.856 34.5699 123.347C33.936 123.046 32.9593 122.973 32.3151 123.181Z" fill="#FCC415"/>
<path d="M45.6149 123.181C44.5239 123.545 43.5368 124.646 43.3082 125.758C42.8614 127.898 45.0019 130.039 47.1423 129.592C48.7529 129.259 49.9997 127.618 49.8439 126.07C49.7296 124.979 48.9087 123.856 47.8697 123.347C47.2358 123.046 46.2591 122.973 45.6149 123.181Z" fill="#FCC415"/>
<path d="M58.9152 123.181C57.8242 123.545 56.8371 124.646 56.6085 125.758C56.1617 127.898 58.3022 130.039 60.4426 129.592C62.0532 129.259 63.3001 127.618 63.1442 126.07C63.0299 124.979 62.209 123.856 61.17 123.347C60.5361 123.046 59.5594 122.973 58.9152 123.181Z" fill="#FCC415"/>
<path d="M72.215 123.181C71.124 123.545 70.1369 124.646 69.9083 125.758C69.4615 127.898 71.602 130.039 73.7424 129.592C75.353 129.259 76.5998 127.618 76.444 126.07C76.3297 124.979 75.5088 123.856 74.4698 123.347C73.8359 123.046 72.8592 122.973 72.215 123.181Z" fill="#FCC415"/>
</svg>
