<svg width="273" height="639" viewBox="0 0 273 639" fill="none" xmlns="http://www.w3.org/2000/svg">
<path d="M8.74518 0H-275C-292.673 0 -307 14.3269 -307 32V503.511C-307 516 -299.734 527.348 -288.391 532.574L-71.8913 632.33C-63.3931 636.245 -53.6069 636.245 -45.1087 632.33L176.954 530.011C185.252 526.188 191.521 518.999 194.178 510.256L267.417 269.364C270.854 258.06 267.782 245.782 259.428 237.428L31.3726 9.37258C25.3714 3.37142 17.2321 0 8.74518 0Z" fill="#FDF8D0"/>
<path d="M5.21475 411.481C4.12374 411.845 3.13663 412.946 2.90804 414.058C2.46125 416.198 4.60171 418.339 6.74217 417.892C8.35271 417.56 9.59958 415.918 9.44372 414.37C9.32943 413.279 8.50857 412.156 7.46951 411.647C6.83568 411.346 5.85897 411.273 5.21475 411.481Z" fill="#FCC415"/>
<path d="M18.5148 411.481C17.4238 411.845 16.4367 412.946 16.2081 414.058C15.7613 416.198 17.9018 418.339 20.0422 417.892C21.6528 417.56 22.8996 415.918 22.7438 414.37C22.6295 413.279 21.8086 412.156 20.7696 411.647C20.1357 411.346 19.159 411.273 18.5148 411.481Z" fill="#FCC415"/>
<path d="M31.8146 411.481C30.7236 411.845 29.7365 412.946 29.5079 414.058C29.0611 416.198 31.2016 418.339 33.342 417.892C34.9526 417.56 36.1995 415.918 36.0436 414.37C35.9293 413.279 35.1084 412.156 34.0694 411.647C33.4356 411.346 32.4588 411.273 31.8146 411.481Z" fill="#FCC415"/>
<path d="M45.1148 411.481C44.0238 411.845 43.0367 412.946 42.8081 414.058C42.5483 415.274 43.1406 416.593 44.2835 417.372C45.3953 418.141 46.663 418.152 47.7852 417.404C49.6243 416.178 49.8737 413.892 48.3359 412.364C47.4527 411.471 46.185 411.128 45.1148 411.481Z" fill="#FCC415"/>
<path d="M58.4146 411.481C57.3236 411.845 56.3365 412.946 56.1079 414.058C55.8481 415.274 56.4404 416.593 57.5833 417.372C58.6951 418.141 59.9628 418.152 61.085 417.404C62.9241 416.178 63.1735 413.892 61.6357 412.364C60.7525 411.471 59.4848 411.128 58.4146 411.481Z" fill="#FCC415"/>
<path d="M5.21475 424.781C4.12374 425.145 3.13663 426.246 2.90804 427.358C2.46125 429.498 4.60171 431.639 6.74217 431.192C8.35271 430.86 9.59958 429.218 9.44372 427.67C9.32943 426.579 8.50857 425.456 7.46951 424.947C6.83568 424.646 5.85897 424.573 5.21475 424.781Z" fill="#FCC415"/>
<path d="M18.5148 424.781C17.4238 425.145 16.4367 426.246 16.2081 427.358C15.7613 429.498 17.9018 431.639 20.0422 431.192C21.6528 430.86 22.8996 429.218 22.7438 427.67C22.6295 426.579 21.8086 425.456 20.7696 424.947C20.1357 424.646 19.159 424.573 18.5148 424.781Z" fill="#FCC415"/>
<path d="M31.8146 424.781C30.7236 425.145 29.7365 426.246 29.5079 427.358C29.0611 429.498 31.2016 431.639 33.342 431.192C34.9526 430.86 36.1995 429.218 36.0436 427.67C35.9293 426.579 35.1084 425.456 34.0694 424.947C33.4356 424.646 32.4588 424.573 31.8146 424.781Z" fill="#FCC415"/>
<path d="M45.1148 424.781C44.0238 425.145 43.0367 426.246 42.8081 427.358C42.5483 428.574 43.1406 429.893 44.2835 430.673C45.3953 431.441 46.663 431.452 47.7852 430.704C49.6243 429.478 49.8737 427.192 48.3359 425.664C47.4527 424.771 46.185 424.428 45.1148 424.781Z" fill="#FCC415"/>
<path d="M58.4146 424.781C57.3236 425.145 56.3365 426.246 56.1079 427.358C55.8481 428.574 56.4404 429.893 57.5833 430.673C58.6951 431.441 59.9628 431.452 61.085 430.704C62.9241 429.478 63.1735 427.192 61.6357 425.664C60.7525 424.771 59.4848 424.428 58.4146 424.781Z" fill="#FCC415"/>
<path d="M5.21475 438.081C4.12374 438.445 3.13663 439.546 2.90804 440.658C2.46125 442.798 4.60171 444.939 6.74217 444.492C8.35271 444.159 9.59958 442.518 9.44372 440.969C9.32943 439.878 8.50857 438.756 7.46951 438.247C6.83568 437.946 5.85897 437.873 5.21475 438.081Z" fill="#FCC415"/>
<path d="M18.5148 438.081C17.4238 438.445 16.4367 439.546 16.2081 440.658C15.7613 442.798 17.9018 444.939 20.0422 444.492C21.6528 444.159 22.8996 442.518 22.7438 440.969C22.6295 439.878 21.8086 438.756 20.7696 438.247C20.1357 437.946 19.159 437.873 18.5148 438.081Z" fill="#FCC415"/>
<path d="M31.8146 438.081C30.7236 438.445 29.7365 439.546 29.5079 440.658C29.0611 442.798 31.2016 444.939 33.342 444.492C34.9526 444.159 36.1995 442.518 36.0436 440.969C35.9293 439.878 35.1084 438.756 34.0694 438.247C33.4356 437.946 32.4588 437.873 31.8146 438.081Z" fill="#FCC415"/>
<path d="M45.1149 438.081C44.0239 438.445 43.0368 439.546 42.8082 440.658C42.3614 442.798 44.5019 444.939 46.6423 444.492C48.2529 444.159 49.4997 442.518 49.3439 440.969C49.2296 439.878 48.4087 438.756 47.3697 438.247C46.7358 437.946 45.7591 437.873 45.1149 438.081Z" fill="#FCC415"/>
<path d="M58.4147 438.081C57.3237 438.445 56.3366 439.546 56.108 440.658C55.6612 442.798 57.8017 444.939 59.9421 444.492C61.5527 444.159 62.7996 442.518 62.6437 440.969C62.5294 439.878 61.7086 438.756 60.6695 438.247C60.0357 437.946 59.0589 437.873 58.4147 438.081Z" fill="#FCC415"/>
<path d="M5.21475 451.381C4.12374 451.745 3.13663 452.846 2.90804 453.958C2.46125 456.098 4.60171 458.239 6.74217 457.792C8.35271 457.459 9.59958 455.818 9.44372 454.269C9.32943 453.178 8.50857 452.056 7.46951 451.547C6.83568 451.246 5.85897 451.173 5.21475 451.381Z" fill="#FCC415"/>
<path d="M18.5148 451.381C17.4238 451.745 16.4367 452.846 16.2081 453.958C15.7613 456.098 17.9018 458.239 20.0422 457.792C21.6528 457.459 22.8996 455.818 22.7438 454.269C22.6295 453.178 21.8086 452.056 20.7696 451.547C20.1357 451.246 19.159 451.173 18.5148 451.381Z" fill="#FCC415"/>
<path d="M31.8146 451.381C30.7236 451.745 29.7365 452.846 29.5079 453.958C29.0611 456.098 31.2016 458.239 33.342 457.792C34.9526 457.459 36.1995 455.818 36.0436 454.269C35.9293 453.178 35.1084 452.056 34.0694 451.547C33.4356 451.246 32.4588 451.173 31.8146 451.381Z" fill="#FCC415"/>
<path d="M45.1149 451.381C44.0239 451.745 43.0368 452.846 42.8082 453.958C42.3614 456.098 44.5019 458.239 46.6423 457.792C48.2529 457.459 49.4997 455.818 49.3439 454.269C49.2296 453.178 48.4087 452.056 47.3697 451.547C46.7358 451.246 45.7591 451.173 45.1149 451.381Z" fill="#FCC415"/>
<path d="M58.4147 451.381C57.3237 451.745 56.3366 452.846 56.108 453.958C55.6612 456.098 57.8017 458.239 59.9421 457.792C61.5527 457.459 62.7996 455.818 62.6437 454.269C62.5294 453.178 61.7086 452.056 60.6695 451.547C60.0357 451.246 59.0589 451.173 58.4147 451.381Z" fill="#FCC415"/>
<path d="M5.21475 464.681C4.12374 465.045 3.13663 466.146 2.90804 467.258C2.46125 469.398 4.60171 471.539 6.74217 471.092C8.35271 470.759 9.59958 469.118 9.44372 467.57C9.32943 466.479 8.50857 465.356 7.46951 464.847C6.83568 464.546 5.85897 464.473 5.21475 464.681Z" fill="#FCC415"/>
<path d="M18.5148 464.681C17.4238 465.045 16.4367 466.146 16.2081 467.258C15.7613 469.398 17.9018 471.539 20.0422 471.092C21.6528 470.759 22.8996 469.118 22.7438 467.57C22.6295 466.479 21.8086 465.356 20.7696 464.847C20.1357 464.546 19.159 464.473 18.5148 464.681Z" fill="#FCC415"/>
<path d="M31.8146 464.681C30.7236 465.045 29.7365 466.146 29.5079 467.258C29.0611 469.398 31.2016 471.539 33.342 471.092C34.9526 470.759 36.1995 469.118 36.0436 467.57C35.9293 466.479 35.1084 465.356 34.0694 464.847C33.4356 464.546 32.4588 464.473 31.8146 464.681Z" fill="#FCC415"/>
<path d="M45.1149 464.681C44.0239 465.045 43.0368 466.146 42.8082 467.258C42.3614 469.398 44.5019 471.539 46.6423 471.092C48.2529 470.759 49.4997 469.118 49.3439 467.57C49.2296 466.479 48.4087 465.356 47.3697 464.847C46.7358 464.546 45.7591 464.473 45.1149 464.681Z" fill="#FCC415"/>
<path d="M58.4147 464.681C57.3237 465.045 56.3366 466.146 56.108 467.258C55.6612 469.398 57.8017 471.539 59.9421 471.092C61.5527 470.759 62.7996 469.118 62.6437 467.57C62.5294 466.479 61.7086 465.356 60.6695 464.847C60.0357 464.546 59.0589 464.473 58.4147 464.681Z" fill="#FCC415"/>
<path d="M5.21475 477.981C4.12374 478.345 3.13663 479.446 2.90804 480.558C2.46125 482.698 4.60171 484.839 6.74217 484.392C8.35271 484.06 9.59958 482.418 9.44372 480.87C9.32943 479.779 8.50857 478.656 7.46951 478.147C6.83568 477.846 5.85897 477.773 5.21475 477.981Z" fill="#FCC415"/>
<path d="M18.5148 477.981C17.4238 478.345 16.4367 479.446 16.2081 480.558C15.7613 482.698 17.9018 484.839 20.0422 484.392C21.6528 484.06 22.8996 482.418 22.7438 480.87C22.6295 479.779 21.8086 478.656 20.7696 478.147C20.1357 477.846 19.159 477.773 18.5148 477.981Z" fill="#FCC415"/>
<path d="M31.8146 477.981C30.7236 478.345 29.7365 479.446 29.5079 480.558C29.0611 482.698 31.2016 484.839 33.342 484.392C34.9526 484.06 36.1995 482.418 36.0436 480.87C35.9293 479.779 35.1084 478.656 34.0694 478.147C33.4356 477.846 32.4588 477.773 31.8146 477.981Z" fill="#FCC415"/>
<path d="M45.1149 477.981C44.0239 478.345 43.0368 479.446 42.8082 480.558C42.3614 482.698 44.5019 484.839 46.6423 484.392C48.2529 484.06 49.4997 482.418 49.3439 480.87C49.2296 479.779 48.4087 478.656 47.3697 478.147C46.7358 477.846 45.7591 477.773 45.1149 477.981Z" fill="#FCC415"/>
<path d="M58.4147 477.981C57.3237 478.345 56.3366 479.446 56.108 480.558C55.6612 482.698 57.8017 484.839 59.9421 484.392C61.5527 484.06 62.7996 482.418 62.6437 480.87C62.5294 479.779 61.7086 478.656 60.6695 478.147C60.0357 477.846 59.0589 477.773 58.4147 477.981Z" fill="#FCC415"/>
<path d="M5.21484 491.281C3.64585 491.8 2.586 493.525 2.90811 495.042C3.16788 496.279 4.32124 497.432 5.55773 497.692C7.56312 498.118 9.65164 496.216 9.44383 494.17C9.32953 493.078 8.50867 491.956 7.46961 491.447C6.83578 491.146 5.85906 491.073 5.21484 491.281Z" fill="#FCC415"/>
<path d="M18.5146 491.281C16.9457 491.8 15.8858 493.525 16.2079 495.042C16.4677 496.279 17.621 497.432 18.8575 497.692C20.8629 498.118 22.9515 496.216 22.7436 494.17C22.6293 493.078 21.8085 491.956 20.7694 491.447C20.1356 491.146 19.1589 491.073 18.5146 491.281Z" fill="#FCC415"/>
<path d="M31.8147 491.281C30.2457 491.8 29.1859 493.525 29.508 495.042C29.7677 496.279 30.9211 497.432 32.1576 497.692C34.163 498.118 36.2515 496.216 36.0437 494.17C35.9294 493.078 35.1085 491.956 34.0695 491.447C33.4356 491.146 32.4589 491.073 31.8147 491.281Z" fill="#FCC415"/>
<path d="M45.1149 491.281C44.0239 491.645 43.0368 492.746 42.8082 493.858C42.3614 495.998 44.5019 498.139 46.6423 497.692C48.2529 497.36 49.4997 495.718 49.3439 494.17C49.2296 493.079 48.4087 491.956 47.3697 491.447C46.7358 491.146 45.7591 491.073 45.1149 491.281Z" fill="#FCC415"/>
<path d="M58.4147 491.281C57.3237 491.645 56.3366 492.746 56.108 493.858C55.6612 495.998 57.8017 498.139 59.9421 497.692C61.5527 497.36 62.7996 495.718 62.6437 494.17C62.5294 493.079 61.7086 491.956 60.6695 491.447C60.0357 491.146 59.0589 491.073 58.4147 491.281Z" fill="#FCC415"/>
<path d="M5.21484 504.581C3.64585 505.1 2.586 506.825 2.90811 508.342C3.16788 509.579 4.32124 510.732 5.55773 510.992C7.56312 511.418 9.65164 509.517 9.44383 507.47C9.32953 506.379 8.50867 505.256 7.46961 504.747C6.83578 504.446 5.85906 504.373 5.21484 504.581Z" fill="#FCC415"/>
<path d="M18.5146 504.581C16.9457 505.1 15.8858 506.825 16.2079 508.342C16.4677 509.579 17.621 510.732 18.8575 510.992C20.8629 511.418 22.9515 509.517 22.7436 507.47C22.6293 506.379 21.8085 505.256 20.7694 504.747C20.1356 504.446 19.1589 504.373 18.5146 504.581Z" fill="#FCC415"/>
<path d="M31.8147 504.581C30.2457 505.1 29.1859 506.825 29.508 508.342C29.7677 509.579 30.9211 510.732 32.1576 510.992C34.163 511.418 36.2515 509.517 36.0437 507.47C35.9294 506.379 35.1085 505.256 34.0695 504.747C33.4356 504.446 32.4589 504.373 31.8147 504.581Z" fill="#FCC415"/>
<path d="M45.1149 504.581C44.0239 504.945 43.0368 506.046 42.8082 507.158C42.3614 509.298 44.5019 511.439 46.6423 510.992C48.2529 510.659 49.4997 509.018 49.3439 507.469C49.2296 506.378 48.4087 505.256 47.3697 504.747C46.7358 504.446 45.7591 504.373 45.1149 504.581Z" fill="#FCC415"/>
<path d="M58.4147 504.581C57.3237 504.945 56.3366 506.046 56.108 507.158C55.6612 509.298 57.8017 511.439 59.9421 510.992C61.5527 510.659 62.7996 509.018 62.6437 507.469C62.5294 506.378 61.7086 505.256 60.6695 504.747C60.0357 504.446 59.0589 504.373 58.4147 504.581Z" fill="#FCC415"/>
<path d="M5.21475 517.881C4.12374 518.245 3.13663 519.346 2.90804 520.458C2.46125 522.598 4.60171 524.739 6.74217 524.292C8.35271 523.959 9.59958 522.318 9.44372 520.769C9.32943 519.678 8.50857 518.556 7.46951 518.047C6.83568 517.746 5.85897 517.673 5.21475 517.881Z" fill="#FCC415"/>
<path d="M18.5148 517.881C17.4238 518.245 16.4367 519.346 16.2081 520.458C15.7613 522.598 17.9018 524.739 20.0422 524.292C21.6528 523.959 22.8996 522.318 22.7438 520.769C22.6295 519.678 21.8086 518.556 20.7696 518.047C20.1357 517.746 19.159 517.673 18.5148 517.881Z" fill="#FCC415"/>
<path d="M31.8146 517.881C30.7236 518.245 29.7365 519.346 29.5079 520.458C29.0611 522.598 31.2016 524.739 33.342 524.292C34.9526 523.959 36.1995 522.318 36.0436 520.769C35.9293 519.678 35.1084 518.556 34.0694 518.047C33.4356 517.746 32.4588 517.673 31.8146 517.881Z" fill="#FCC415"/>
<path d="M45.1149 517.881C44.0239 518.245 43.0368 519.346 42.8082 520.458C42.3614 522.598 44.5019 524.739 46.6423 524.292C48.2529 523.959 49.4997 522.318 49.3439 520.769C49.2296 519.678 48.4087 518.556 47.3697 518.047C46.7358 517.746 45.7591 517.673 45.1149 517.881Z" fill="#FCC415"/>
<path d="M58.4147 517.881C57.3237 518.245 56.3366 519.346 56.108 520.458C55.6612 522.598 57.8017 524.739 59.9421 524.292C61.5527 523.959 62.7996 522.318 62.6437 520.769C62.5294 519.678 61.7086 518.556 60.6695 518.047C60.0357 517.746 59.0589 517.673 58.4147 517.881Z" fill="#FCC415"/>
<path d="M5.21475 531.181C4.12374 531.545 3.13663 532.646 2.90804 533.758C2.46125 535.898 4.60171 538.039 6.74217 537.592C8.35271 537.259 9.59958 535.618 9.44372 534.07C9.32943 532.979 8.50857 531.856 7.46951 531.347C6.83568 531.046 5.85897 530.973 5.21475 531.181Z" fill="#FCC415"/>
<path d="M18.5148 531.181C17.4238 531.545 16.4367 532.646 16.2081 533.758C15.7613 535.898 17.9018 538.039 20.0422 537.592C21.6528 537.259 22.8996 535.618 22.7438 534.07C22.6295 532.979 21.8086 531.856 20.7696 531.347C20.1357 531.046 19.159 530.973 18.5148 531.181Z" fill="#FCC415"/>
<path d="M31.8146 531.181C30.7236 531.545 29.7365 532.646 29.5079 533.758C29.0611 535.898 31.2016 538.039 33.342 537.592C34.9526 537.259 36.1995 535.618 36.0436 534.07C35.9293 532.979 35.1084 531.856 34.0694 531.347C33.4356 531.046 32.4588 530.973 31.8146 531.181Z" fill="#FCC415"/>
<path d="M45.1149 531.181C44.0239 531.545 43.0368 532.646 42.8082 533.758C42.3614 535.898 44.5019 538.039 46.6423 537.592C48.2529 537.259 49.4997 535.618 49.3439 534.07C49.2296 532.979 48.4087 531.856 47.3697 531.347C46.7358 531.046 45.7591 530.973 45.1149 531.181Z" fill="#FCC415"/>
<path d="M58.4147 531.181C57.3237 531.545 56.3366 532.646 56.108 533.758C55.6612 535.898 57.8017 538.039 59.9421 537.592C61.5527 537.259 62.7996 535.618 62.6437 534.07C62.5294 532.979 61.7086 531.856 60.6695 531.347C60.0357 531.046 59.0589 530.973 58.4147 531.181Z" fill="#FCC415"/>
</svg>
